<svg xmlns="http://www.w3.org/2000/svg" viewBox="0 0 64 64" fill="currentColor" aria-hidden="true">
  <title>Mimicus</title>
  <!-- Órbitas atómicas -->
  <ellipse cx="32" cy="32" rx="28" ry="10" fill="none" stroke="currentColor" stroke-width="1.5" opacity="0.45" transform="rotate(-28 32 32)"/>
  <ellipse cx="32" cy="32" rx="28" ry="10" fill="none" stroke="currentColor" stroke-width="1.5" opacity="0.45" transform="rotate(32 32 32)"/>
  <ellipse cx="32" cy="32" rx="10" ry="28" fill="none" stroke="currentColor" stroke-width="1.5" opacity="0.35"/>
  <!-- Tentáculos como trayectorias -->
  <path d="M32 22 C18 14 8 20 6 32 C8 44 18 50 32 42" fill="none" stroke="currentColor" stroke-width="2" stroke-linecap="round" opacity="0.7"/>
  <path d="M32 22 C46 14 56 20 58 32 C56 44 46 50 32 42" fill="none" stroke="currentColor" stroke-width="2" stroke-linecap="round" opacity="0.7"/>
  <path d="M22 32 C14 18 20 8 32 6 C44 8 50 18 42 32" fill="none" stroke="currentColor" stroke-width="2" stroke-linecap="round" opacity="0.55"/>
  <path d="M42 32 C50 46 44 56 32 58 C20 56 14 46 22 32" fill="none" stroke="currentColor" stroke-width="2" stroke-linecap="round" opacity="0.55"/>
  <!-- Núcleo: pulpo -->
  <circle cx="32" cy="32" r="9"/>
  <circle cx="28.5" cy="30" r="1.4" fill="#0b1220"/>
  <circle cx="35.5" cy="30" r="1.4" fill="#0b1220"/>
  <path d="M27 35 Q32 38 37 35" fill="none" stroke="#0b1220" stroke-width="1.2" stroke-linecap="round"/>
  <path d="M32 41 v5 M28 40 l-3 6 M36 40 l3 6 M24 38 l-5 4 M40 38 l5 4" stroke="currentColor" stroke-width="2" stroke-linecap="round"/>
</svg>
